mtllib 2 bij 2.mtl
v 5 9.536743E-07 -12
v 5.4566 7.529341E-07 -9.703799
v 5.4566 4.000001 -9.703799
v 5 4.000001 -12
v 6.7574 5.827744E-07 -7.7574
v 6.7574 4 -7.7574
v 8.7038 4.690549E-07 -6.4566
v 8.7038 4 -6.4566
v 11 4.291377E-07 -6
v 11 4 -6
v 13.2962 4.690549E-07 -6.4566
v 13.2962 4 -6.4566
v 15.2426 5.827744E-07 -7.7574
v 15.2426 4 -7.7574
v 16.5434 7.529341E-07 -9.703799
v 16.5434 4.000001 -9.703799
v 17 9.536743E-07 -12
v 17 4.000001 -12
v 16.5434 1.154414E-06 -14.2962
v 16.5434 4.000001 -14.2962
v 15.2426 1.324574E-06 -16.2426
v 15.2426 4.000001 -16.2426
v 13.2962 1.438294E-06 -17.5434
v 13.2962 4.000001 -17.5434
v 11 1.478211E-06 -18
v 11 4.000001 -18
v 8.7038 1.438294E-06 -17.5434
v 8.7038 4.000001 -17.5434
v 6.7574 1.324574E-06 -16.2426
v 6.7574 4.000001 -16.2426
v 5.4566 1.154414E-06 -14.2962
v 5.4566 4.000001 -14.2962
v 3 9.536743E-07 -12
v 3.6088 6.860208E-07 -8.938399
v 3.6088 4 -8.938399
v 3 4.000001 -12
v 5.3432 4.591412E-07 -6.3432
v 5.3432 4 -6.3432
v 7.9384 3.075151E-07 -4.608799
v 7.9384 4 -4.608799
v 11 2.542921E-07 -4
v 11 4 -3.999999
v 14.0616 3.075151E-07 -4.608799
v 14.0616 4 -4.608799
v 16.6568 4.591412E-07 -6.3432
v 16.6568 4 -6.3432
v 18.3912 6.860208E-07 -8.938399
v 18.3912 4 -8.938399
v 19 9.536743E-07 -12
v 19 4.000001 -12
v 18.3912 1.221328E-06 -15.0616
v 18.3912 4.000001 -15.0616
v 16.6568 1.448208E-06 -17.6568
v 16.6568 4.000001 -17.6568
v 14.0616 1.599834E-06 -19.3912
v 14.0616 4.000001 -19.3912
v 11 1.653057E-06 -20
v 11 4.000001 -20
v 7.9384 1.599834E-06 -19.3912
v 7.9384 4.000001 -19.3912
v 5.3432 1.448208E-06 -17.6568
v 5.3432 4.000001 -17.6568
v 3.6088 1.221328E-06 -15.0616
v 3.6088 4.000001 -15.0616
v 11 2.542921E-07 -4
v 11 4.291377E-07 -6
v 13.2962 4.690549E-07 -6.4566
v 14.0616 3.075151E-07 -4.608799
v 15.2426 5.827744E-07 -7.7574
v 16.6568 4.591412E-07 -6.3432
v 16.5434 7.529341E-07 -9.703799
v 18.3912 6.860208E-07 -8.938399
v 17 9.536743E-07 -12
v 19 9.536743E-07 -12
v 16.5434 1.154414E-06 -14.2962
v 18.3912 1.221328E-06 -15.0616
v 15.2426 1.324574E-06 -16.2426
v 16.6568 1.448208E-06 -17.6568
v 13.2962 1.438294E-06 -17.5434
v 14.0616 1.599834E-06 -19.3912
v 11 1.478211E-06 -18
v 11 1.653057E-06 -20
v 8.7038 1.438294E-06 -17.5434
v 7.9384 1.599834E-06 -19.3912
v 6.7574 1.324574E-06 -16.2426
v 5.3432 1.448208E-06 -17.6568
v 5.4566 1.154414E-06 -14.2962
v 3.6088 1.221328E-06 -15.0616
v 5 9.536743E-07 -12
v 3 9.536743E-07 -12
v 5.4566 7.529341E-07 -9.703799
v 3.6088 6.860208E-07 -8.938399
v 6.7574 5.827744E-07 -7.7574
v 5.3432 4.591412E-07 -6.3432
v 8.7038 4.690549E-07 -6.4566
v 7.9384 3.075151E-07 -4.608799
v 27 4.000002 -28
v -5 4.000002 -28
v -5 4 4
v 27 4 4
v -5 4 4
v -5 -4.450901E-07 4
v 27 -4.450901E-07 4
v 27 4 4
v 27 4 4
v 27 -4.450901E-07 4
v 27 2.352439E-06 -28
v 27 4.000002 -28
v 27 4.000002 -28
v 27 2.352439E-06 -28
v -5 2.352439E-06 -28
v -5 4.000002 -28
v -5 4.000002 -28
v -5 2.352439E-06 -28
v -5 -4.450901E-07 4
v -5 4 4
v 31 -7.947812E-07 8
v 27 -4.450901E-07 4
v -5 -4.450901E-07 4
v -9 -7.947812E-07 8
v -9 2.70213E-06 -32
v -5 2.352439E-06 -28
v 27 2.352439E-06 -28
v 31 2.70213E-06 -32
v 31 8.000003 -32
v -9 8.000003 -32
v -9 7.999999 8.000001
v 31 7.999999 8.000001
v -9 7.999999 8.000001
v -9 -7.947812E-07 8
v 31 -7.947812E-07 8
v 31 7.999999 8.000001
v 31 7.999999 8.000001
v 31 -7.947812E-07 8
v 31 2.70213E-06 -32
v 31 8.000003 -32
v 31 8.000003 -32
v 31 2.70213E-06 -32
v -9 2.70213E-06 -32
v -9 8.000003 -32
v -9 8.000003 -32
v -9 2.70213E-06 -32
v -9 -7.947812E-07 8
v -9 7.999999 8.000001
v -5 8 -1.999999
v -4.5434 8 0.2962008
v -4.5434 12 0.2962011
v -5 12 -1.999999
v -3.242599 8 2.2426
v -3.242599 12 2.242601
v -1.2962 8 3.543401
v -1.2962 12 3.543401
v 1 8 4.000001
v 1 12 4.000001
v 3.2962 8 3.543401
v 3.2962 12 3.543401
v 5.2426 8 2.2426
v 5.2426 12 2.242601
v 6.5434 8 0.2962008
v 6.5434 12 0.2962011
v 7 8 -1.999999
v 7 12 -1.999999
v 6.5434 8 -4.296199
v 6.5434 12 -4.296198
v 5.2426 8 -6.242599
v 5.2426 12 -6.242599
v 3.2962 8.000001 -7.543399
v 3.2962 12 -7.543398
v 1 8.000001 -7.999999
v 1 12 -7.999999
v -1.2962 8.000001 -7.543399
v -1.2962 12 -7.543398
v -3.242599 8 -6.242599
v -3.242599 12 -6.242599
v -4.5434 8 -4.296199
v -4.5434 12 -4.296198
v -4.5434 12 0.2962011
v -5 12 -1.999999
v 1 12 -1.999999
v -3.242599 12 2.242601
v -1.2962 12 3.543401
v 1 12 4.000001
v 3.2962 12 3.543401
v 5.2426 12 2.242601
v 6.5434 12 0.2962011
v 7 12 -1.999999
v 6.5434 12 -4.296198
v 5.2426 12 -6.242599
v 3.2962 12 -7.543398
v 1 12 -7.999999
v -1.2962 12 -7.543398
v -3.242599 12 -6.242599
v -4.5434 12 -4.296198
v 15 8 -1.999999
v 15.4566 8 0.2962008
v 15.4566 12 0.2962011
v 15 12 -1.999999
v 16.7574 8 2.2426
v 16.7574 12 2.242601
v 18.7038 8 3.543401
v 18.7038 12 3.543401
v 21 8 4.000001
v 21 12 4.000001
v 23.2962 8 3.543401
v 23.2962 12 3.543401
v 25.2426 8 2.2426
v 25.2426 12 2.242601
v 26.5434 8 0.2962008
v 26.5434 12 0.2962011
v 27 8 -1.999999
v 27 12 -1.999999
v 26.5434 8 -4.296199
v 26.5434 12 -4.296198
v 25.2426 8 -6.242599
v 25.2426 12 -6.242599
v 23.2962 8.000001 -7.543399
v 23.2962 12 -7.543398
v 21 8.000001 -7.999999
v 21 12 -7.999999
v 18.7038 8.000001 -7.543399
v 18.7038 12 -7.543398
v 16.7574 8 -6.242599
v 16.7574 12 -6.242599
v 15.4566 8 -4.296199
v 15.4566 12 -4.296198
v 15.4566 12 0.2962011
v 15 12 -1.999999
v 21 12 -1.999999
v 16.7574 12 2.242601
v 18.7038 12 3.543401
v 21 12 4.000001
v 23.2962 12 3.543401
v 25.2426 12 2.242601
v 26.5434 12 0.2962011
v 27 12 -1.999999
v 26.5434 12 -4.296198
v 25.2426 12 -6.242599
v 23.2962 12 -7.543398
v 21 12 -7.999999
v 18.7038 12 -7.543398
v 16.7574 12 -6.242599
v 15.4566 12 -4.296198
v -5 8.000002 -22
v -4.5434 8.000002 -19.7038
v -4.5434 12 -19.7038
v -5 12 -22
v -3.242599 8.000002 -17.7574
v -3.242599 12 -17.7574
v -1.2962 8.000001 -16.4566
v -1.2962 12 -16.4566
v 1 8.000001 -16
v 1 12 -16
v 3.2962 8.000001 -16.4566
v 3.2962 12 -16.4566
v 5.2426 8.000002 -17.7574
v 5.2426 12 -17.7574
v 6.5434 8.000002 -19.7038
v 6.5434 12 -19.7038
v 7 8.000002 -22
v 7 12 -22
v 6.5434 8.000002 -24.2962
v 6.5434 12 -24.2962
v 5.2426 8.000002 -26.2426
v 5.2426 12 -26.2426
v 3.2962 8.000002 -27.5434
v 3.2962 12 -27.5434
v 1 8.000002 -28
v 1 12 -28
v -1.2962 8.000002 -27.5434
v -1.2962 12 -27.5434
v -3.242599 8.000002 -26.2426
v -3.242599 12 -26.2426
v -4.5434 8.000002 -24.2962
v -4.5434 12 -24.2962
v -4.5434 12 -19.7038
v -5 12 -22
v 1 12 -22
v -3.242599 12 -17.7574
v -1.2962 12 -16.4566
v 1 12 -16
v 3.2962 12 -16.4566
v 5.2426 12 -17.7574
v 6.5434 12 -19.7038
v 7 12 -22
v 6.5434 12 -24.2962
v 5.2426 12 -26.2426
v 3.2962 12 -27.5434
v 1 12 -28
v -1.2962 12 -27.5434
v -3.242599 12 -26.2426
v -4.5434 12 -24.2962
v 15 8.000002 -22
v 15.4566 8.000002 -19.7038
v 15.4566 12 -19.7038
v 15 12 -22
v 16.7574 8.000002 -17.7574
v 16.7574 12 -17.7574
v 18.7038 8.000001 -16.4566
v 18.7038 12 -16.4566
v 21 8.000001 -16
v 21 12 -16
v 23.2962 8.000001 -16.4566
v 23.2962 12 -16.4566
v 25.2426 8.000002 -17.7574
v 25.2426 12 -17.7574
v 26.5434 8.000002 -19.7038
v 26.5434 12 -19.7038
v 27 8.000002 -22
v 27 12 -22
v 26.5434 8.000002 -24.2962
v 26.5434 12 -24.2962
v 25.2426 8.000002 -26.2426
v 25.2426 12 -26.2426
v 23.2962 8.000002 -27.5434
v 23.2962 12 -27.5434
v 21 8.000002 -28
v 21 12 -28
v 18.7038 8.000002 -27.5434
v 18.7038 12 -27.5434
v 16.7574 8.000002 -26.2426
v 16.7574 12 -26.2426
v 15.4566 8.000002 -24.2962
v 15.4566 12 -24.2962
v 15.4566 12 -19.7038
v 15 12 -22
v 21 12 -22
v 16.7574 12 -17.7574
v 18.7038 12 -16.4566
v 21 12 -16
v 23.2962 12 -16.4566
v 25.2426 12 -17.7574
v 26.5434 12 -19.7038
v 27 12 -22
v 26.5434 12 -24.2962
v 25.2426 12 -26.2426
v 23.2962 12 -27.5434
v 21 12 -28
v 18.7038 12 -27.5434
v 16.7574 12 -26.2426
v 15.4566 12 -24.2962
vn 0.9807969 -1.705022E-08 0.1950318
vn 0.8314189 4.857613E-08 -0.5556461
vn 0.8314189 4.857613E-08 -0.5556461
vn 0.9807969 -1.705022E-08 0.1950318
vn 0.5556461 7.268495E-08 -0.8314189
vn 0.5556461 7.268495E-08 -0.8314189
vn 0.1950318 8.574399E-08 -0.9807969
vn 0.1950318 8.574399E-08 -0.9807969
vn -0.1950318 8.574399E-08 -0.9807969
vn -0.1950318 8.574399E-08 -0.9807969
vn -0.5556461 7.268495E-08 -0.8314189
vn -0.5556461 7.268495E-08 -0.8314189
vn -0.8314189 4.857613E-08 -0.5556461
vn -0.8314189 4.857613E-08 -0.5556461
vn -0.9807969 1.705022E-08 -0.1950318
vn -0.9807969 1.705022E-08 -0.1950318
vn -0.9807969 -1.705022E-08 0.1950318
vn -0.9807969 -1.705022E-08 0.1950318
vn -0.8314189 -4.857613E-08 0.5556461
vn -0.8314189 -4.857613E-08 0.5556461
vn -0.5556461 -7.268495E-08 0.8314189
vn -0.5556461 -7.268495E-08 0.8314189
vn -0.1950318 -8.574399E-08 0.9807969
vn -0.1950318 -8.574399E-08 0.9807969
vn 0.1950318 -8.574399E-08 0.9807969
vn 0.1950318 -8.574399E-08 0.9807969
vn 0.5556461 -7.268495E-08 0.8314189
vn 0.5556461 -7.268495E-08 0.8314189
vn 0.8314189 -4.857613E-08 0.5556461
vn 0.8314189 -4.857613E-08 0.5556461
vn 0.9807969 -1.705022E-08 0.1950318
vn 0.9807969 -1.705022E-08 0.1950318
vn -0.9807969 1.705021E-08 -0.1950317
vn -0.8314188 -4.857614E-08 0.5556462
vn -0.8314188 -4.857614E-08 0.5556462
vn -0.9807969 1.705021E-08 -0.1950317
vn -0.5556462 -7.268493E-08 0.8314188
vn -0.5556462 -7.268493E-08 0.8314188
vn -0.1950317 -8.574399E-08 0.9807969
vn -0.1950317 -8.574399E-08 0.9807969
vn 0.1950317 -8.574399E-08 0.9807969
vn 0.1950317 -8.574399E-08 0.9807969
vn 0.5556462 -7.268493E-08 0.8314188
vn 0.5556462 -7.268493E-08 0.8314188
vn 0.8314188 -4.857614E-08 0.5556462
vn 0.8314188 -4.857614E-08 0.5556462
vn 0.9807969 -1.705021E-08 0.1950317
vn 0.9807969 -1.705021E-08 0.1950317
vn 0.9807969 1.705021E-08 -0.1950317
vn 0.9807969 1.705021E-08 -0.1950317
vn 0.8314188 4.857614E-08 -0.5556462
vn 0.8314188 4.857614E-08 -0.5556462
vn 0.5556462 7.268493E-08 -0.8314188
vn 0.5556462 7.268493E-08 -0.8314188
vn 0.1950317 8.574399E-08 -0.9807969
vn 0.1950317 8.574399E-08 -0.9807969
vn -0.1950317 8.574399E-08 -0.9807969
vn -0.1950317 8.574399E-08 -0.9807969
vn -0.5556462 7.268493E-08 -0.8314188
vn -0.5556462 7.268493E-08 -0.8314188
vn -0.8314188 4.857614E-08 -0.5556462
vn -0.8314188 4.857614E-08 -0.5556462
vn -0.9807969 1.705021E-08 -0.1950317
vn -0.9807969 1.705021E-08 -0.1950317
vn 0 -1 -8.742278E-08
vn 0 -1 -8.742278E-08
vn 0 -1 -8.742278E-08
vn 0 -1 -8.742278E-08
vn 0 -1 -8.742278E-08
vn 0 -1 -8.742278E-08
vn 0 -1 -8.742278E-08
vn 0 -1 -8.742278E-08
vn 0 -1 -8.742278E-08
vn 0 -1 -8.742278E-08
vn 0 -1 -8.742278E-08
vn 0 -1 -8.742278E-08
vn 0 -1 -8.742278E-08
vn 0 -1 -8.742278E-08
vn 0 -1 -8.742278E-08
vn 0 -1 -8.742278E-08
vn 0 -1 -8.742278E-08
vn 0 -1 -8.742278E-08
vn 0 -1 -8.742278E-08
vn 0 -1 -8.742278E-08
vn 0 -1 -8.742278E-08
vn 0 -1 -8.742278E-08
vn 0 -1 -8.742278E-08
vn 0 -1 -8.742278E-08
vn 0 -1 -8.742278E-08
vn 0 -1 -8.742278E-08
vn 0 -1 -8.742278E-08
vn 0 -1 -8.742278E-08
vn 0 -1 -8.742278E-08
vn 0 -1 -8.742278E-08
vn 0 -1 -8.742278E-08
vn 0 -1 -8.742278E-08
vn 0 -1 -8.742278E-08
vn 0 -1 -8.742278E-08
vn 0 -1 -8.742278E-08
vn 0 -1 -8.742278E-08
vn 0 8.742278E-08 -1
vn 0 8.742278E-08 -1
vn 0 8.742278E-08 -1
vn 0 8.742278E-08 -1
vn -1 0 0
vn -1 0 0
vn -1 0 0
vn -1 0 0
vn 0 -8.742278E-08 1
vn 0 -8.742278E-08 1
vn 0 -8.742278E-08 1
vn 0 -8.742278E-08 1
vn 1 0 0
vn 1 0 0
vn 1 0 0
vn 1 0 0
vn 0 -1 -8.742278E-08
vn 0 -1 -8.742278E-08
vn 0 -1 -8.742278E-08
vn 0 -1 -8.742278E-08
vn 0 -1 -8.742278E-08
vn 0 -1 -8.742278E-08
vn 0 -1 -8.742278E-08
vn 0 -1 -8.742278E-08
vn 0 1 8.742278E-08
vn 0 1 8.742278E-08
vn 0 1 8.742278E-08
vn 0 1 8.742278E-08
vn 0 -8.742278E-08 1
vn 0 -8.742278E-08 1
vn 0 -8.742278E-08 1
vn 0 -8.742278E-08 1
vn 1 0 0
vn 1 0 0
vn 1 0 0
vn 1 0 0
vn 0 8.742278E-08 -1
vn 0 8.742278E-08 -1
vn 0 8.742278E-08 -1
vn 0 8.742278E-08 -1
vn -1 0 0
vn -1 0 0
vn -1 0 0
vn -1 0 0
vn -0.9807969 1.705022E-08 -0.1950318
vn -0.8314188 -4.857615E-08 0.5556464
vn -0.8314188 -4.857615E-08 0.5556464
vn -0.9807969 1.705022E-08 -0.1950318
vn -0.5556464 -7.268494E-08 0.8314188
vn -0.5556464 -7.268494E-08 0.8314188
vn -0.1950318 -8.574399E-08 0.9807969
vn -0.1950318 -8.574399E-08 0.9807969
vn 0.1950318 -8.574399E-08 0.9807969
vn 0.1950318 -8.574399E-08 0.9807969
vn 0.5556462 -7.268494E-08 0.8314188
vn 0.5556462 -7.268494E-08 0.8314188
vn 0.8314189 -4.857613E-08 0.5556462
vn 0.8314189 -4.857613E-08 0.5556462
vn 0.9807969 -1.705022E-08 0.1950318
vn 0.9807969 -1.705022E-08 0.1950318
vn 0.9807969 1.705022E-08 -0.1950318
vn 0.9807969 1.705022E-08 -0.1950318
vn 0.8314189 4.857612E-08 -0.5556461
vn 0.8314189 4.857612E-08 -0.5556461
vn 0.5556461 7.268495E-08 -0.8314189
vn 0.5556461 7.268495E-08 -0.8314189
vn 0.1950318 8.574399E-08 -0.9807969
vn 0.1950318 8.574399E-08 -0.9807969
vn -0.1950318 8.574399E-08 -0.9807969
vn -0.1950318 8.574399E-08 -0.9807969
vn -0.5556462 7.268495E-08 -0.8314189
vn -0.5556462 7.268495E-08 -0.8314189
vn -0.8314188 4.857614E-08 -0.5556462
vn -0.8314188 4.857614E-08 -0.5556462
vn -0.9807969 1.705022E-08 -0.1950318
vn -0.9807969 1.705022E-08 -0.1950318
vn 0 1 8.742278E-08
vn 0 1 8.742278E-08
vn 0 1 8.742278E-08
vn 0 1 8.742278E-08
vn 0 1 8.742278E-08
vn 0 1 8.742278E-08
vn 0 1 8.742278E-08
vn 0 1 8.742278E-08
vn 0 1 8.742278E-08
vn 0 1 8.742278E-08
vn 0 1 8.742278E-08
vn 0 1 8.742278E-08
vn 0 1 8.742278E-08
vn 0 1 8.742278E-08
vn 0 1 8.742278E-08
vn 0 1 8.742278E-08
vn 0 1 8.742278E-08
vn -0.9807969 1.705022E-08 -0.1950318
vn -0.8314189 -4.857613E-08 0.5556462
vn -0.8314189 -4.857613E-08 0.5556462
vn -0.9807969 1.705022E-08 -0.1950318
vn -0.5556462 -7.268494E-08 0.8314188
vn -0.5556462 -7.268494E-08 0.8314188
vn -0.1950318 -8.574399E-08 0.9807969
vn -0.1950318 -8.574399E-08 0.9807969
vn 0.1950318 -8.574399E-08 0.9807969
vn 0.1950318 -8.574399E-08 0.9807969
vn 0.5556464 -7.268494E-08 0.8314188
vn 0.5556464 -7.268494E-08 0.8314188
vn 0.8314188 -4.857615E-08 0.5556464
vn 0.8314188 -4.857615E-08 0.5556464
vn 0.9807969 -1.705022E-08 0.1950318
vn 0.9807969 -1.705022E-08 0.1950318
vn 0.9807969 1.705022E-08 -0.1950318
vn 0.9807969 1.705022E-08 -0.1950318
vn 0.8314188 4.857614E-08 -0.5556462
vn 0.8314188 4.857614E-08 -0.5556462
vn 0.5556462 7.268495E-08 -0.8314189
vn 0.5556462 7.268495E-08 -0.8314189
vn 0.1950318 8.574399E-08 -0.9807969
vn 0.1950318 8.574399E-08 -0.9807969
vn -0.1950318 8.574399E-08 -0.9807969
vn -0.1950318 8.574399E-08 -0.9807969
vn -0.5556461 7.268495E-08 -0.8314189
vn -0.5556461 7.268495E-08 -0.8314189
vn -0.8314189 4.857612E-08 -0.5556461
vn -0.8314189 4.857612E-08 -0.5556461
vn -0.9807969 1.705022E-08 -0.1950318
vn -0.9807969 1.705022E-08 -0.1950318
vn 0 1 8.742278E-08
vn 0 1 8.742278E-08
vn 0 1 8.742278E-08
vn 0 1 8.742278E-08
vn 0 1 8.742278E-08
vn 0 1 8.742278E-08
vn 0 1 8.742278E-08
vn 0 1 8.742278E-08
vn 0 1 8.742278E-08
vn 0 1 8.742278E-08
vn 0 1 8.742278E-08
vn 0 1 8.742278E-08
vn 0 1 8.742278E-08
vn 0 1 8.742278E-08
vn 0 1 8.742278E-08
vn 0 1 8.742278E-08
vn 0 1 8.742278E-08
vn -0.9807969 1.705022E-08 -0.1950318
vn -0.8314188 -4.857614E-08 0.5556462
vn -0.8314188 -4.857614E-08 0.5556462
vn -0.9807969 1.705022E-08 -0.1950318
vn -0.5556462 -7.268495E-08 0.8314189
vn -0.5556462 -7.268495E-08 0.8314189
vn -0.1950318 -8.574399E-08 0.9807969
vn -0.1950318 -8.574399E-08 0.9807969
vn 0.1950318 -8.574399E-08 0.9807969
vn 0.1950318 -8.574399E-08 0.9807969
vn 0.5556461 -7.268495E-08 0.8314189
vn 0.5556461 -7.268495E-08 0.8314189
vn 0.8314189 -4.857612E-08 0.5556461
vn 0.8314189 -4.857612E-08 0.5556461
vn 0.9807969 -1.705022E-08 0.1950318
vn 0.9807969 -1.705022E-08 0.1950318
vn 0.9807969 1.705022E-08 -0.1950318
vn 0.9807969 1.705022E-08 -0.1950318
vn 0.8314189 4.857613E-08 -0.5556462
vn 0.8314189 4.857613E-08 -0.5556462
vn 0.5556462 7.268494E-08 -0.8314188
vn 0.5556462 7.268494E-08 -0.8314188
vn 0.1950318 8.574399E-08 -0.9807969
vn 0.1950318 8.574399E-08 -0.9807969
vn -0.1950318 8.574399E-08 -0.9807969
vn -0.1950318 8.574399E-08 -0.9807969
vn -0.5556464 7.268494E-08 -0.8314188
vn -0.5556464 7.268494E-08 -0.8314188
vn -0.8314188 4.857615E-08 -0.5556464
vn -0.8314188 4.857615E-08 -0.5556464
vn -0.9807969 1.705022E-08 -0.1950318
vn -0.9807969 1.705022E-08 -0.1950318
vn 0 1 8.742278E-08
vn 0 1 8.742278E-08
vn 0 1 8.742278E-08
vn 0 1 8.742278E-08
vn 0 1 8.742278E-08
vn 0 1 8.742278E-08
vn 0 1 8.742278E-08
vn 0 1 8.742278E-08
vn 0 1 8.742278E-08
vn 0 1 8.742278E-08
vn 0 1 8.742278E-08
vn 0 1 8.742278E-08
vn 0 1 8.742278E-08
vn 0 1 8.742278E-08
vn 0 1 8.742278E-08
vn 0 1 8.742278E-08
vn 0 1 8.742278E-08
vn -0.9807969 1.705022E-08 -0.1950318
vn -0.8314189 -4.857612E-08 0.5556461
vn -0.8314189 -4.857612E-08 0.5556461
vn -0.9807969 1.705022E-08 -0.1950318
vn -0.5556461 -7.268495E-08 0.8314189
vn -0.5556461 -7.268495E-08 0.8314189
vn -0.1950318 -8.574399E-08 0.9807969
vn -0.1950318 -8.574399E-08 0.9807969
vn 0.1950318 -8.574399E-08 0.9807969
vn 0.1950318 -8.574399E-08 0.9807969
vn 0.5556462 -7.268495E-08 0.8314189
vn 0.5556462 -7.268495E-08 0.8314189
vn 0.8314188 -4.857614E-08 0.5556462
vn 0.8314188 -4.857614E-08 0.5556462
vn 0.9807969 -1.705022E-08 0.1950318
vn 0.9807969 -1.705022E-08 0.1950318
vn 0.9807969 1.705022E-08 -0.1950318
vn 0.9807969 1.705022E-08 -0.1950318
vn 0.8314188 4.857615E-08 -0.5556464
vn 0.8314188 4.857615E-08 -0.5556464
vn 0.5556464 7.268494E-08 -0.8314188
vn 0.5556464 7.268494E-08 -0.8314188
vn 0.1950318 8.574399E-08 -0.9807969
vn 0.1950318 8.574399E-08 -0.9807969
vn -0.1950318 8.574399E-08 -0.9807969
vn -0.1950318 8.574399E-08 -0.9807969
vn -0.5556462 7.268494E-08 -0.8314188
vn -0.5556462 7.268494E-08 -0.8314188
vn -0.8314189 4.857613E-08 -0.5556462
vn -0.8314189 4.857613E-08 -0.5556462
vn -0.9807969 1.705022E-08 -0.1950318
vn -0.9807969 1.705022E-08 -0.1950318
vn 0 1 8.742278E-08
vn 0 1 8.742278E-08
vn 0 1 8.742278E-08
vn 0 1 8.742278E-08
vn 0 1 8.742278E-08
vn 0 1 8.742278E-08
vn 0 1 8.742278E-08
vn 0 1 8.742278E-08
vn 0 1 8.742278E-08
vn 0 1 8.742278E-08
vn 0 1 8.742278E-08
vn 0 1 8.742278E-08
vn 0 1 8.742278E-08
vn 0 1 8.742278E-08
vn 0 1 8.742278E-08
vn 0 1 8.742278E-08
vn 0 1 8.742278E-08
vt 8 0
vt 8 -2.2962
vt 4 -2.2962
vt 4 0
vt 4.2426 8
vt 4.2426 4
vt 2.2962 8
vt 2.2962 4
vt 0 8
vt 0 4
vt -2.2962 8
vt -2.2962 4
vt 8 -4.2426
vt 4 -4.2426
vt 8 -2.2962
vt 4 -2.2962
vt 8 0
vt 4 0
vt 8 2.2962
vt 4 2.2962
vt -4.2426 8
vt -4.2426 4
vt -2.2962 8
vt -2.2962 4
vt 0 8
vt 0 4
vt 2.2962 8
vt 2.2962 4
vt 8 4.2426
vt 4 4.2426
vt 8 2.2962
vt 4 2.2962
vt 8 0
vt 8 -3.0616
vt 4 -3.0616
vt 4 0
vt 5.6568 8
vt 5.6568 4
vt 3.0616 8
vt 3.0616 4
vt 0 8
vt 0 4
vt -3.0616 8
vt -3.0616 4
vt 8 -5.6568
vt 4 -5.6568
vt 8 -3.0616
vt 4 -3.0616
vt 8 0
vt 4 0
vt 8 3.0616
vt 4 3.0616
vt -5.6568 8
vt -5.6568 4
vt -3.0616 8
vt -3.0616 4
vt 0 8
vt 0 4
vt 3.0616 8
vt 3.0616 4
vt 8 5.6568
vt 4 5.6568
vt 8 3.0616
vt 4 3.0616
vt -8 0
vt -6 0
vt -5.5434 -2.2962
vt -7.3912 -3.0616
vt -4.2426 -4.2426
vt -5.6568 -5.6568
vt -2.2962 -5.5434
vt -3.0616 -7.3912
vt 0 -6
vt 0 -8
vt 2.2962 -5.5434
vt 3.0616 -7.3912
vt 4.2426 -4.2426
vt 5.6568 -5.6568
vt 5.5434 -2.2962
vt 7.3912 -3.0616
vt 6 0
vt 8 0
vt 5.5434 2.2962
vt 7.3912 3.0616
vt 4.2426 4.2426
vt 5.6568 5.6568
vt 2.2962 5.5434
vt 3.0616 7.3912
vt 0 6
vt 0 8
vt -2.2962 5.5434
vt -3.0616 7.3912
vt -4.2426 4.2426
vt -5.6568 5.6568
vt -5.5434 2.2962
vt -7.3912 3.0616
vt 16 -16
vt 16 16
vt -16 16
vt -16 -16
vt 16 4
vt 16 8
vt -16 8
vt -16 4
vt 4 -16
vt 8 -16
vt 8 16
vt 4 16
vt -16 4
vt -16 8
vt 16 8
vt 16 4
vt 4 16
vt 8 16
vt 8 -16
vt 4 -16
vt -20 -20
vt -16 -16
vt -16 16
vt -20 20
vt 20 20
vt 16 16
vt 16 -16
vt 20 -20
vt 20 -20
vt 20 20
vt -20 20
vt -20 -20
vt 20 0
vt 20 8
vt -20 8
vt -20 0
vt 0 -20
vt 8 -20
vt 8 20
vt 0 20
vt -20 0
vt -20 8
vt 20 8
vt 20 0
vt 0 20
vt 8 20
vt 8 -20
vt 0 -20
vt 0 -10
vt 0 -12.2962
vt -4 -12.2962
vt -4 -10
vt 14.2426 0
vt 14.2426 -4
vt 12.2962 0
vt 12.2962 -4
vt 10 0
vt 10 -4
vt 7.7038 0
vt 7.7038 -4
vt 0 -14.2426
vt -4 -14.2426
vt 0 -12.2962
vt -4 -12.2962
vt 0 -10
vt -4 -10
vt 0 -7.7038
vt -4 -7.7038
vt 5.7574 0
vt 5.7574 -4
vt 7.7038 0
vt 7.7038 -4
vt 10 0
vt 10 -4
vt 12.2962 0
vt 12.2962 -4
vt 0 -5.7574
vt -4 -5.7574
vt 0 -7.7038
vt -4 -7.7038
vt -12.2962 15.5434
vt -10 16
vt -10 10
vt -14.2426 14.2426
vt -15.5434 12.2962
vt -16 10
vt -15.5434 7.7038
vt -14.2426 5.7574
vt -12.2962 4.4566
vt -10 4
vt -7.7038 4.4566
vt -5.7574 5.7574
vt -4.4566 7.7038
vt -4 10
vt -4.4566 12.2962
vt -5.7574 14.2426
vt -7.7038 15.5434
vt 0 -10
vt 0 -12.2962
vt -4 -12.2962
vt -4 -10
vt -5.7574 0
vt -5.7574 -4
vt -7.7038 0
vt -7.7038 -4
vt -10 0
vt -10 -4
vt -12.2962 0
vt -12.2962 -4
vt 0 -14.2426
vt -4 -14.2426
vt 0 -12.2962
vt -4 -12.2962
vt 0 -10
vt -4 -10
vt 0 -7.7038
vt -4 -7.7038
vt -14.2426 0
vt -14.2426 -4
vt -12.2962 0
vt -12.2962 -4
vt -10 0
vt -10 -4
vt -7.7038 0
vt -7.7038 -4
vt 0 -5.7574
vt -4 -5.7574
vt 0 -7.7038
vt -4 -7.7038
vt -12.2962 -4.4566
vt -10 -4
vt -10 -10
vt -14.2426 -5.7574
vt -15.5434 -7.7038
vt -16 -10
vt -15.5434 -12.2962
vt -14.2426 -14.2426
vt -12.2962 -15.5434
vt -10 -16
vt -7.7038 -15.5434
vt -5.7574 -14.2426
vt -4.4566 -12.2962
vt -4 -10
vt -4.4566 -7.7038
vt -5.7574 -5.7574
vt -7.7038 -4.4566
vt 0 10
vt 0 7.7038
vt -4 7.7038
vt -4 10
vt 14.2426 0
vt 14.2426 -4
vt 12.2962 0
vt 12.2962 -4
vt 10 0
vt 10 -4
vt 7.7038 0
vt 7.7038 -4
vt 0 5.7574
vt -4 5.7574
vt 0 7.7038
vt -4 7.7038
vt 0 10
vt -4 10
vt 0 12.2962
vt -4 12.2962
vt 5.7574 0
vt 5.7574 -4
vt 7.7038 0
vt 7.7038 -4
vt 10 0
vt 10 -4
vt 12.2962 0
vt 12.2962 -4
vt 0 14.2426
vt -4 14.2426
vt 0 12.2962
vt -4 12.2962
vt 7.7038 15.5434
vt 10 16
vt 10 10
vt 5.7574 14.2426
vt 4.4566 12.2962
vt 4 10
vt 4.4566 7.7038
vt 5.7574 5.7574
vt 7.7038 4.4566
vt 10 4
vt 12.2962 4.4566
vt 14.2426 5.7574
vt 15.5434 7.7038
vt 16 10
vt 15.5434 12.2962
vt 14.2426 14.2426
vt 12.2962 15.5434
vt 0 10
vt 0 7.7038
vt -4 7.7038
vt -4 10
vt -5.7574 0
vt -5.7574 -4
vt -7.7038 0
vt -7.7038 -4
vt -10 0
vt -10 -4
vt -12.2962 0
vt -12.2962 -4
vt 0 5.7574
vt -4 5.7574
vt 0 7.7038
vt -4 7.7038
vt 0 10
vt -4 10
vt 0 12.2962
vt -4 12.2962
vt -14.2426 0
vt -14.2426 -4
vt -12.2962 0
vt -12.2962 -4
vt -10 0
vt -10 -4
vt -7.7038 0
vt -7.7038 -4
vt 0 14.2426
vt -4 14.2426
vt 0 12.2962
vt -4 12.2962
vt 7.7038 -4.4566
vt 10 -4
vt 10 -10
vt 5.7574 -5.7574
vt 4.4566 -7.7038
vt 4 -10
vt 4.4566 -12.2962
vt 5.7574 -14.2426
vt 7.7038 -15.5434
vt 10 -16
vt 12.2962 -15.5434
vt 14.2426 -14.2426
vt 15.5434 -12.2962
vt 16 -10
vt 15.5434 -7.7038
vt 14.2426 -5.7574
vt 12.2962 -4.4566
usemtl 15
f 3/3/3 2/2/2 1/1/1
f 4/4/4 3/3/3 1/1/1
f 6/6/6 5/5/5 2/2/2
f 3/3/3 6/6/6 2/2/2
f 8/8/8 7/7/7 5/5/5
f 6/6/6 8/8/8 5/5/5
f 10/10/10 9/9/9 7/7/7
f 8/8/8 10/10/10 7/7/7
f 12/12/12 11/11/11 9/9/9
f 10/10/10 12/12/12 9/9/9
f 14/14/14 13/13/13 11/11/11
f 12/12/12 14/14/14 11/11/11
f 16/16/16 15/15/15 13/13/13
f 14/14/14 16/16/16 13/13/13
f 18/18/18 17/17/17 15/15/15
f 16/16/16 18/18/18 15/15/15
f 20/20/20 19/19/19 17/17/17
f 18/18/18 20/20/20 17/17/17
f 22/22/22 21/21/21 19/19/19
f 20/20/20 22/22/22 19/19/19
f 24/24/24 23/23/23 21/21/21
f 22/22/22 24/24/24 21/21/21
f 26/26/26 25/25/25 23/23/23
f 24/24/24 26/26/26 23/23/23
f 28/28/28 27/27/27 25/25/25
f 26/26/26 28/28/28 25/25/25
f 30/30/30 29/29/29 27/27/27
f 28/28/28 30/30/30 27/27/27
f 32/32/32 31/31/31 29/29/29
f 30/30/30 32/32/32 29/29/29
f 4/4/4 1/1/1 31/31/31
f 32/32/32 4/4/4 31/31/31
f 33/33/33 34/34/34 35/35/35
f 33/33/33 35/35/35 36/36/36
f 34/34/34 37/37/37 38/38/38
f 34/34/34 38/38/38 35/35/35
f 37/37/37 39/39/39 40/40/40
f 37/37/37 40/40/40 38/38/38
f 39/39/39 41/41/41 42/42/42
f 39/39/39 42/42/42 40/40/40
f 41/41/41 43/43/43 44/44/44
f 41/41/41 44/44/44 42/42/42
f 43/43/43 45/45/45 46/46/46
f 43/43/43 46/46/46 44/44/44
f 45/45/45 47/47/47 48/48/48
f 45/45/45 48/48/48 46/46/46
f 47/47/47 49/49/49 50/50/50
f 47/47/47 50/50/50 48/48/48
f 49/49/49 51/51/51 52/52/52
f 49/49/49 52/52/52 50/50/50
f 51/51/51 53/53/53 54/54/54
f 51/51/51 54/54/54 52/52/52
f 53/53/53 55/55/55 56/56/56
f 53/53/53 56/56/56 54/54/54
f 55/55/55 57/57/57 58/58/58
f 55/55/55 58/58/58 56/56/56
f 57/57/57 59/59/59 60/60/60
f 57/57/57 60/60/60 58/58/58
f 59/59/59 61/61/61 62/62/62
f 59/59/59 62/62/62 60/60/60
f 61/61/61 63/63/63 64/64/64
f 61/61/61 64/64/64 62/62/62
f 63/63/63 33/33/33 36/36/36
f 63/63/63 36/36/36 64/64/64
f 65/65/65 66/66/66 67/67/67
f 65/65/65 67/67/67 68/68/68
f 68/68/68 67/67/67 69/69/69
f 68/68/68 69/69/69 70/70/70
f 70/70/70 69/69/69 71/71/71
f 70/70/70 71/71/71 72/72/72
f 72/72/72 71/71/71 73/73/73
f 72/72/72 73/73/73 74/74/74
f 74/74/74 73/73/73 75/75/75
f 74/74/74 75/75/75 76/76/76
f 76/76/76 75/75/75 77/77/77
f 76/76/76 77/77/77 78/78/78
f 78/78/78 77/77/77 79/79/79
f 78/78/78 79/79/79 80/80/80
f 80/80/80 79/79/79 81/81/81
f 80/80/80 81/81/81 82/82/82
f 82/82/82 81/81/81 83/83/83
f 82/82/82 83/83/83 84/84/84
f 84/84/84 83/83/83 85/85/85
f 84/84/84 85/85/85 86/86/86
f 86/86/86 85/85/85 87/87/87
f 86/86/86 87/87/87 88/88/88
f 88/88/88 87/87/87 89/89/89
f 88/88/88 89/89/89 90/90/90
f 90/90/90 89/89/89 91/91/91
f 90/90/90 91/91/91 92/92/92
f 92/92/92 91/91/91 93/93/93
f 92/92/92 93/93/93 94/94/94
f 94/94/94 93/93/93 95/95/95
f 94/94/94 95/95/95 96/96/96
f 96/96/96 95/95/95 66/66/66
f 96/96/96 66/66/66 65/65/65
f 99/99/99 98/98/98 97/97/97
f 100/100/100 99/99/99 97/97/97
f 103/103/103 102/102/102 101/101/101
f 104/104/104 103/103/103 101/101/101
f 107/107/107 106/106/106 105/105/105
f 108/108/108 107/107/107 105/105/105
f 111/111/111 110/110/110 109/109/109
f 112/112/112 111/111/111 109/109/109
f 115/115/115 114/114/114 113/113/113
f 116/116/116 115/115/115 113/113/113
f 119/119/119 118/118/118 117/117/117
f 120/120/120 119/119/119 117/117/117
f 123/123/123 122/122/122 121/121/121
f 124/124/124 123/123/123 121/121/121
f 122/122/122 119/119/119 120/120/120
f 121/121/121 122/122/122 120/120/120
f 118/118/118 123/123/123 124/124/124
f 117/117/117 118/118/118 124/124/124
f 125/125/125 126/126/126 127/127/127
f 125/125/125 127/127/127 128/128/128
f 129/129/129 130/130/130 131/131/131
f 129/129/129 131/131/131 132/132/132
f 133/133/133 134/134/134 135/135/135
f 133/133/133 135/135/135 136/136/136
f 137/137/137 138/138/138 139/139/139
f 137/137/137 139/139/139 140/140/140
f 141/141/141 142/142/142 143/143/143
f 141/141/141 143/143/143 144/144/144
f 145/145/145 146/146/146 147/147/147
f 145/145/145 147/147/147 148/148/148
f 146/146/146 149/149/149 150/150/150
f 146/146/146 150/150/150 147/147/147
f 149/149/149 151/151/151 152/152/152
f 149/149/149 152/152/152 150/150/150
f 151/151/151 153/153/153 154/154/154
f 151/151/151 154/154/154 152/152/152
f 153/153/153 155/155/155 156/156/156
f 153/153/153 156/156/156 154/154/154
f 155/155/155 157/157/157 158/158/158
f 155/155/155 158/158/158 156/156/156
f 157/157/157 159/159/159 160/160/160
f 157/157/157 160/160/160 158/158/158
f 159/159/159 161/161/161 162/162/162
f 159/159/159 162/162/162 160/160/160
f 161/161/161 163/163/163 164/164/164
f 161/161/161 164/164/164 162/162/162
f 163/163/163 165/165/165 166/166/166
f 163/163/163 166/166/166 164/164/164
f 165/165/165 167/167/167 168/168/168
f 165/165/165 168/168/168 166/166/166
f 167/167/167 169/169/169 170/170/170
f 167/167/167 170/170/170 168/168/168
f 169/169/169 171/171/171 172/172/172
f 169/169/169 172/172/172 170/170/170
f 171/171/171 173/173/173 174/174/174
f 171/171/171 174/174/174 172/172/172
f 173/173/173 175/175/175 176/176/176
f 173/173/173 176/176/176 174/174/174
f 175/175/175 145/145/145 148/148/148
f 175/175/175 148/148/148 176/176/176
f 179/179/179 178/178/178 177/177/177
f 179/179/179 177/177/177 180/180/180
f 179/179/179 180/180/180 181/181/181
f 179/179/179 181/181/181 182/182/182
f 179/179/179 182/182/182 183/183/183
f 179/179/179 183/183/183 184/184/184
f 179/179/179 184/184/184 185/185/185
f 179/179/179 185/185/185 186/186/186
f 179/179/179 186/186/186 187/187/187
f 179/179/179 187/187/187 188/188/188
f 179/179/179 188/188/188 189/189/189
f 179/179/179 189/189/189 190/190/190
f 179/179/179 190/190/190 191/191/191
f 179/179/179 191/191/191 192/192/192
f 179/179/179 192/192/192 193/193/193
f 179/179/179 193/193/193 178/178/178
f 194/194/194 195/195/195 196/196/196
f 194/194/194 196/196/196 197/197/197
f 195/195/195 198/198/198 199/199/199
f 195/195/195 199/199/199 196/196/196
f 198/198/198 200/200/200 201/201/201
f 198/198/198 201/201/201 199/199/199
f 200/200/200 202/202/202 203/203/203
f 200/200/200 203/203/203 201/201/201
f 202/202/202 204/204/204 205/205/205
f 202/202/202 205/205/205 203/203/203
f 204/204/204 206/206/206 207/207/207
f 204/204/204 207/207/207 205/205/205
f 206/206/206 208/208/208 209/209/209
f 206/206/206 209/209/209 207/207/207
f 208/208/208 210/210/210 211/211/211
f 208/208/208 211/211/211 209/209/209
f 210/210/210 212/212/212 213/213/213
f 210/210/210 213/213/213 211/211/211
f 212/212/212 214/214/214 215/215/215
f 212/212/212 215/215/215 213/213/213
f 214/214/214 216/216/216 217/217/217
f 214/214/214 217/217/217 215/215/215
f 216/216/216 218/218/218 219/219/219
f 216/216/216 219/219/219 217/217/217
f 218/218/218 220/220/220 221/221/221
f 218/218/218 221/221/221 219/219/219
f 220/220/220 222/222/222 223/223/223
f 220/220/220 223/223/223 221/221/221
f 222/222/222 224/224/224 225/225/225
f 222/222/222 225/225/225 223/223/223
f 224/224/224 194/194/194 197/197/197
f 224/224/224 197/197/197 225/225/225
f 228/228/228 227/227/227 226/226/226
f 228/228/228 226/226/226 229/229/229
f 228/228/228 229/229/229 230/230/230
f 228/228/228 230/230/230 231/231/231
f 228/228/228 231/231/231 232/232/232
f 228/228/228 232/232/232 233/233/233
f 228/228/228 233/233/233 234/234/234
f 228/228/228 234/234/234 235/235/235
f 228/228/228 235/235/235 236/236/236
f 228/228/228 236/236/236 237/237/237
f 228/228/228 237/237/237 238/238/238
f 228/228/228 238/238/238 239/239/239
f 228/228/228 239/239/239 240/240/240
f 228/228/228 240/240/240 241/241/241
f 228/228/228 241/241/241 242/242/242
f 228/228/228 242/242/242 227/227/227
f 243/243/243 244/244/244 245/245/245
f 243/243/243 245/245/245 246/246/246
f 244/244/244 247/247/247 248/248/248
f 244/244/244 248/248/248 245/245/245
f 247/247/247 249/249/249 250/250/250
f 247/247/247 250/250/250 248/248/248
f 249/249/249 251/251/251 252/252/252
f 249/249/249 252/252/252 250/250/250
f 251/251/251 253/253/253 254/254/254
f 251/251/251 254/254/254 252/252/252
f 253/253/253 255/255/255 256/256/256
f 253/253/253 256/256/256 254/254/254
f 255/255/255 257/257/257 258/258/258
f 255/255/255 258/258/258 256/256/256
f 257/257/257 259/259/259 260/260/260
f 257/257/257 260/260/260 258/258/258
f 259/259/259 261/261/261 262/262/262
f 259/259/259 262/262/262 260/260/260
f 261/261/261 263/263/263 264/264/264
f 261/261/261 264/264/264 262/262/262
f 263/263/263 265/265/265 266/266/266
f 263/263/263 266/266/266 264/264/264
f 265/265/265 267/267/267 268/268/268
f 265/265/265 268/268/268 266/266/266
f 267/267/267 269/269/269 270/270/270
f 267/267/267 270/270/270 268/268/268
f 269/269/269 271/271/271 272/272/272
f 269/269/269 272/272/272 270/270/270
f 271/271/271 273/273/273 274/274/274
f 271/271/271 274/274/274 272/272/272
f 273/273/273 243/243/243 246/246/246
f 273/273/273 246/246/246 274/274/274
f 277/277/277 276/276/276 275/275/275
f 277/277/277 275/275/275 278/278/278
f 277/277/277 278/278/278 279/279/279
f 277/277/277 279/279/279 280/280/280
f 277/277/277 280/280/280 281/281/281
f 277/277/277 281/281/281 282/282/282
f 277/277/277 282/282/282 283/283/283
f 277/277/277 283/283/283 284/284/284
f 277/277/277 284/284/284 285/285/285
f 277/277/277 285/285/285 286/286/286
f 277/277/277 286/286/286 287/287/287
f 277/277/277 287/287/287 288/288/288
f 277/277/277 288/288/288 289/289/289
f 277/277/277 289/289/289 290/290/290
f 277/277/277 290/290/290 291/291/291
f 277/277/277 291/291/291 276/276/276
f 292/292/292 293/293/293 294/294/294
f 292/292/292 294/294/294 295/295/295
f 293/293/293 296/296/296 297/297/297
f 293/293/293 297/297/297 294/294/294
f 296/296/296 298/298/298 299/299/299
f 296/296/296 299/299/299 297/297/297
f 298/298/298 300/300/300 301/301/301
f 298/298/298 301/301/301 299/299/299
f 300/300/300 302/302/302 303/303/303
f 300/300/300 303/303/303 301/301/301
f 302/302/302 304/304/304 305/305/305
f 302/302/302 305/305/305 303/303/303
f 304/304/304 306/306/306 307/307/307
f 304/304/304 307/307/307 305/305/305
f 306/306/306 308/308/308 309/309/309
f 306/306/306 309/309/309 307/307/307
f 308/308/308 310/310/310 311/311/311
f 308/308/308 311/311/311 309/309/309
f 310/310/310 312/312/312 313/313/313
f 310/310/310 313/313/313 311/311/311
f 312/312/312 314/314/314 315/315/315
f 312/312/312 315/315/315 313/313/313
f 314/314/314 316/316/316 317/317/317
f 314/314/314 317/317/317 315/315/315
f 316/316/316 318/318/318 319/319/319
f 316/316/316 319/319/319 317/317/317
f 318/318/318 320/320/320 321/321/321
f 318/318/318 321/321/321 319/319/319
f 320/320/320 322/322/322 323/323/323
f 320/320/320 323/323/323 321/321/321
f 322/322/322 292/292/292 295/295/295
f 322/322/322 295/295/295 323/323/323
f 326/326/326 325/325/325 324/324/324
f 326/326/326 324/324/324 327/327/327
f 326/326/326 327/327/327 328/328/328
f 326/326/326 328/328/328 329/329/329
f 326/326/326 329/329/329 330/330/330
f 326/326/326 330/330/330 331/331/331
f 326/326/326 331/331/331 332/332/332
f 326/326/326 332/332/332 333/333/333
f 326/326/326 333/333/333 334/334/334
f 326/326/326 334/334/334 335/335/335
f 326/326/326 335/335/335 336/336/336
f 326/326/326 336/336/336 337/337/337
f 326/326/326 337/337/337 338/338/338
f 326/326/326 338/338/338 339/339/339
f 326/326/326 339/339/339 340/340/340
f 326/326/326 340/340/340 325/325/325
