mtllib 3 bij 1.mtl
v 64.3044 -3.948524E-06 52.5308
v 64 -3.814697E-06 51
v 68 -3.814697E-06 51
v 65.1716 -4.061964E-06 53.8284
v 66.4692 -4.137777E-06 54.6956
v 68 -4.164388E-06 55
v 69.5308 -4.137777E-06 54.6956
v 70.8284 -4.061964E-06 53.8284
v 71.6956 -3.948524E-06 52.5308
v 72 -3.814697E-06 51
v 71.6956 -3.680871E-06 49.4692
v 70.8284 -3.567431E-06 48.1716
v 69.5308 -3.491618E-06 47.3044
v 68 -3.465006E-06 47
v 66.4692 -3.491618E-06 47.3044
v 65.1716 -3.567431E-06 48.1716
v 64.3044 -3.680871E-06 49.4692
v 64 -3.814697E-06 51
v 64.3044 -3.948524E-06 52.5308
v 64.3044 20 52.5308
v 64 20 51
v 65.1716 -4.061964E-06 53.8284
v 65.1716 20 53.8284
v 66.4692 -4.137777E-06 54.6956
v 66.4692 20 54.6956
v 68 -4.164388E-06 55
v 68 20 55
v 69.5308 -4.137777E-06 54.6956
v 69.5308 20 54.6956
v 70.8284 -4.061964E-06 53.8284
v 70.8284 20 53.8284
v 71.6956 -3.948524E-06 52.5308
v 71.6956 20 52.5308
v 72 -3.814697E-06 51
v 72 20 51
v 71.6956 -3.680871E-06 49.4692
v 71.6956 20 49.4692
v 70.8284 -3.567431E-06 48.1716
v 70.8284 20 48.1716
v 69.5308 -3.491618E-06 47.3044
v 69.5308 20 47.30441
v 68 -3.465006E-06 47
v 68 20 47
v 66.4692 -3.491618E-06 47.3044
v 66.4692 20 47.30441
v 65.1716 -3.567431E-06 48.1716
v 65.1716 20 48.1716
v 64.3044 -3.680871E-06 49.4692
v 64.3044 20 49.4692
v 84.3044 -3.948524E-06 52.5308
v 84 -3.814697E-06 51
v 88 -3.814697E-06 51
v 85.1716 -4.061964E-06 53.8284
v 86.4692 -4.137777E-06 54.6956
v 88 -4.164388E-06 55
v 89.5308 -4.137777E-06 54.6956
v 90.8284 -4.061964E-06 53.8284
v 91.6956 -3.948524E-06 52.5308
v 92 -3.814697E-06 51
v 91.6956 -3.680871E-06 49.4692
v 90.8284 -3.567431E-06 48.1716
v 89.5308 -3.491618E-06 47.3044
v 88 -3.465006E-06 47
v 86.4692 -3.491618E-06 47.3044
v 85.1716 -3.567431E-06 48.1716
v 84.3044 -3.680871E-06 49.4692
v 84 -3.814697E-06 51
v 84.3044 -3.948524E-06 52.5308
v 84.3044 20 52.5308
v 84 20 51
v 85.1716 -4.061964E-06 53.8284
v 85.1716 20 53.8284
v 86.4692 -4.137777E-06 54.6956
v 86.4692 20 54.6956
v 88 -4.164388E-06 55
v 88 20 55
v 89.5308 -4.137777E-06 54.6956
v 89.5308 20 54.6956
v 90.8284 -4.061964E-06 53.8284
v 90.8284 20 53.8284
v 91.6956 -3.948524E-06 52.5308
v 91.6956 20 52.5308
v 92 -3.814697E-06 51
v 92 20 51
v 91.6956 -3.680871E-06 49.4692
v 91.6956 20 49.4692
v 90.8284 -3.567431E-06 48.1716
v 90.8284 20 48.1716
v 89.5308 -3.491618E-06 47.3044
v 89.5308 20 47.30441
v 88 -3.465006E-06 47
v 88 20 47
v 86.4692 -3.491618E-06 47.3044
v 86.4692 20 47.30441
v 85.1716 -3.567431E-06 48.1716
v 85.1716 20 48.1716
v 84.3044 -3.680871E-06 49.4692
v 84.3044 20 49.4692
v 104 20 45
v 52 20 45
v 52 20 57
v 104 20 57
v 52 20 57
v 52 -4.339234E-06 57
v 104 -4.339234E-06 57
v 104 20 57
v 104 20 57
v 104 -4.339234E-06 57
v 104 -3.290161E-06 45
v 104 20 45
v 104 20 45
v 104 -3.290161E-06 45
v 52 -3.290161E-06 45
v 52 20 45
v 52 20 45
v 52 -3.290161E-06 45
v 52 -4.339234E-06 57
v 52 20 57
v 108 -4.688925E-06 61
v 104 -4.339234E-06 57
v 52 -4.339234E-06 57
v 48 -4.688925E-06 61
v 108 -2.94047E-06 41
v 104 -3.290161E-06 45
v 48 -2.94047E-06 41
v 52 -3.290161E-06 45
v 108 24 61
v 108 24 41
v 48 24 41
v 48 24 61
v 48 -4.688925E-06 61
v 108 -4.688925E-06 61
v 108 24 61
v 48 24 61
v 108 -4.688925E-06 61
v 108 -2.94047E-06 41
v 108 24 41
v 108 24 61
v 48 -2.94047E-06 41
v 48 -4.688925E-06 61
v 48 24 61
v 48 24 41
v 52 24 51
v 52.4566 24 53.2962
v 52.4566 28 53.2962
v 52 28 51
v 53.7574 24 55.2426
v 53.7574 28 55.2426
v 55.7038 24 56.5434
v 55.7038 28 56.5434
v 58 24 57
v 58 28 57
v 60.2962 24 56.5434
v 60.2962 28 56.5434
v 62.2426 24 55.2426
v 62.2426 28 55.2426
v 63.5434 24 53.2962
v 63.5434 28 53.2962
v 64 24 51
v 64 28 51
v 63.5434 24 48.7038
v 63.5434 28 48.7038
v 62.2426 24 46.7574
v 62.2426 28 46.7574
v 60.2962 24 45.4566
v 60.2962 28 45.4566
v 58 24 45
v 58 28 45
v 55.7038 24 45.4566
v 55.7038 28 45.4566
v 53.7574 24 46.7574
v 53.7574 28 46.7574
v 52.4566 24 48.7038
v 52.4566 28 48.7038
v 52.4566 28 53.2962
v 52 28 51
v 58 28 51
v 53.7574 28 55.2426
v 55.7038 28 56.5434
v 58 28 57
v 60.2962 28 56.5434
v 62.2426 28 55.2426
v 63.5434 28 53.2962
v 64 28 51
v 63.5434 28 48.7038
v 62.2426 28 46.7574
v 60.2962 28 45.4566
v 58 28 45
v 55.7038 28 45.4566
v 53.7574 28 46.7574
v 52.4566 28 48.7038
v 72 24 51
v 72.4566 24 53.2962
v 72.4566 28 53.2962
v 72 28 51
v 73.7574 24 55.2426
v 73.7574 28 55.2426
v 75.7038 24 56.5434
v 75.7038 28 56.5434
v 78 24 57
v 78 28 57
v 80.2962 24 56.5434
v 80.2962 28 56.5434
v 82.2426 24 55.2426
v 82.2426 28 55.2426
v 83.5434 24 53.2962
v 83.5434 28 53.2962
v 84 24 51
v 84 28 51
v 83.5434 24 48.7038
v 83.5434 28 48.7038
v 82.2426 24 46.7574
v 82.2426 28 46.7574
v 80.2962 24 45.4566
v 80.2962 28 45.4566
v 78 24 45
v 78 28 45
v 75.7038 24 45.4566
v 75.7038 28 45.4566
v 73.7574 24 46.7574
v 73.7574 28 46.7574
v 72.4566 24 48.7038
v 72.4566 28 48.7038
v 72.4566 28 53.2962
v 72 28 51
v 78 28 51
v 73.7574 28 55.2426
v 75.7038 28 56.5434
v 78 28 57
v 80.2962 28 56.5434
v 82.2426 28 55.2426
v 83.5434 28 53.2962
v 84 28 51
v 83.5434 28 48.7038
v 82.2426 28 46.7574
v 80.2962 28 45.4566
v 78 28 45
v 75.7038 28 45.4566
v 73.7574 28 46.7574
v 72.4566 28 48.7038
v 92 24 51
v 92.4566 24 53.2962
v 92.4566 28 53.2962
v 92 28 51
v 93.7574 24 55.2426
v 93.7574 28 55.2426
v 95.7038 24 56.5434
v 95.7038 28 56.5434
v 98 24 57
v 98 28 57
v 100.2962 24 56.5434
v 100.2962 28 56.5434
v 102.2426 24 55.2426
v 102.2426 28 55.2426
v 103.5434 24 53.2962
v 103.5434 28 53.2962
v 104 24 51
v 104 28 51
v 103.5434 24 48.7038
v 103.5434 28 48.7038
v 102.2426 24 46.7574
v 102.2426 28 46.7574
v 100.2962 24 45.4566
v 100.2962 28 45.4566
v 98 24 45
v 98 28 45
v 95.7038 24 45.4566
v 95.7038 28 45.4566
v 93.7574 24 46.7574
v 93.7574 28 46.7574
v 92.4566 24 48.7038
v 92.4566 28 48.7038
v 92.4566 28 53.2962
v 92 28 51
v 98 28 51
v 93.7574 28 55.2426
v 95.7038 28 56.5434
v 98 28 57
v 100.2962 28 56.5434
v 102.2426 28 55.2426
v 103.5434 28 53.2962
v 104 28 51
v 103.5434 28 48.7038
v 102.2426 28 46.7574
v 100.2962 28 45.4566
v 98 28 45
v 95.7038 28 45.4566
v 93.7574 28 46.7574
v 92.4566 28 48.7038
v 48 -2.94047E-06 41
v 108 -2.94047E-06 41
v 108 24 41
v 48 24 41
vn 0 -1 -8.742278E-08
vn 0 -1 -8.742278E-08
vn 0 -1 -8.742278E-08
vn 0 -1 -8.742278E-08
vn 0 -1 -8.742278E-08
vn 0 -1 -8.742278E-08
vn 0 -1 -8.742278E-08
vn 0 -1 -8.742278E-08
vn 0 -1 -8.742278E-08
vn 0 -1 -8.742278E-08
vn 0 -1 -8.742278E-08
vn 0 -1 -8.742278E-08
vn 0 -1 -8.742278E-08
vn 0 -1 -8.742278E-08
vn 0 -1 -8.742278E-08
vn 0 -1 -8.742278E-08
vn 0 -1 -8.742278E-08
vn -0.980797 1.705019E-08 -0.1950314
vn -0.8314187 -4.857617E-08 0.5556466
vn -0.8314187 -4.857617E-08 0.5556466
vn -0.980797 1.705019E-08 -0.1950314
vn -0.5556462 -7.268494E-08 0.8314188
vn -0.5556462 -7.268494E-08 0.8314188
vn -0.1950317 -8.574399E-08 0.9807969
vn -0.1950317 -8.574399E-08 0.9807969
vn 0.1950317 -8.574399E-08 0.9807969
vn 0.1950317 -8.574399E-08 0.9807969
vn 0.5556462 -7.268494E-08 0.8314188
vn 0.5556462 -7.268494E-08 0.8314188
vn 0.8314188 -4.857615E-08 0.5556464
vn 0.8314188 -4.857615E-08 0.5556464
vn 0.980797 -1.705022E-08 0.1950317
vn 0.980797 -1.705022E-08 0.1950317
vn 0.980797 1.705022E-08 -0.1950317
vn 0.980797 1.705022E-08 -0.1950317
vn 0.8314188 4.857615E-08 -0.5556464
vn 0.8314188 4.857615E-08 -0.5556464
vn 0.5556462 7.268494E-08 -0.8314188
vn 0.5556462 7.268494E-08 -0.8314188
vn 0.1950317 8.574399E-08 -0.9807969
vn 0.1950317 8.574399E-08 -0.9807969
vn -0.1950317 8.574399E-08 -0.9807969
vn -0.1950317 8.574399E-08 -0.9807969
vn -0.5556462 7.268494E-08 -0.8314188
vn -0.5556462 7.268494E-08 -0.8314188
vn -0.8314187 4.857617E-08 -0.5556466
vn -0.8314187 4.857617E-08 -0.5556466
vn -0.980797 1.705019E-08 -0.1950314
vn -0.980797 1.705019E-08 -0.1950314
vn 0 -1 -8.742278E-08
vn 0 -1 -8.742278E-08
vn 0 -1 -8.742278E-08
vn 0 -1 -8.742278E-08
vn 0 -1 -8.742278E-08
vn 0 -1 -8.742278E-08
vn 0 -1 -8.742278E-08
vn 0 -1 -8.742278E-08
vn 0 -1 -8.742278E-08
vn 0 -1 -8.742278E-08
vn 0 -1 -8.742278E-08
vn 0 -1 -8.742278E-08
vn 0 -1 -8.742278E-08
vn 0 -1 -8.742278E-08
vn 0 -1 -8.742278E-08
vn 0 -1 -8.742278E-08
vn 0 -1 -8.742278E-08
vn -0.980797 1.705022E-08 -0.1950317
vn -0.8314188 -4.857615E-08 0.5556464
vn -0.8314188 -4.857615E-08 0.5556464
vn -0.980797 1.705022E-08 -0.1950317
vn -0.5556462 -7.268494E-08 0.8314188
vn -0.5556462 -7.268494E-08 0.8314188
vn -0.1950317 -8.574399E-08 0.9807969
vn -0.1950317 -8.574399E-08 0.9807969
vn 0.1950317 -8.574399E-08 0.9807969
vn 0.1950317 -8.574399E-08 0.9807969
vn 0.5556462 -7.268494E-08 0.8314188
vn 0.5556462 -7.268494E-08 0.8314188
vn 0.8314187 -4.857617E-08 0.5556466
vn 0.8314187 -4.857617E-08 0.5556466
vn 0.980797 -1.705019E-08 0.1950314
vn 0.980797 -1.705019E-08 0.1950314
vn 0.980797 1.705019E-08 -0.1950314
vn 0.980797 1.705019E-08 -0.1950314
vn 0.8314187 4.857617E-08 -0.5556466
vn 0.8314187 4.857617E-08 -0.5556466
vn 0.5556462 7.268494E-08 -0.8314188
vn 0.5556462 7.268494E-08 -0.8314188
vn 0.1950317 8.574399E-08 -0.9807969
vn 0.1950317 8.574399E-08 -0.9807969
vn -0.1950317 8.574399E-08 -0.9807969
vn -0.1950317 8.574399E-08 -0.9807969
vn -0.5556462 7.268494E-08 -0.8314188
vn -0.5556462 7.268494E-08 -0.8314188
vn -0.8314188 4.857615E-08 -0.5556464
vn -0.8314188 4.857615E-08 -0.5556464
vn -0.980797 1.705022E-08 -0.1950317
vn -0.980797 1.705022E-08 -0.1950317
vn 0 -1 -8.742278E-08
vn 0 -1 -8.742278E-08
vn 0 -1 -8.742278E-08
vn 0 -1 -8.742278E-08
vn 0 8.742278E-08 -1
vn 0 8.742278E-08 -1
vn 0 8.742278E-08 -1
vn 0 8.742278E-08 -1
vn -1 0 0
vn -1 0 0
vn -1 0 0
vn -1 0 0
vn 0 -8.742278E-08 1
vn 0 -8.742278E-08 1
vn 0 -8.742278E-08 1
vn 0 -8.742278E-08 1
vn 1 0 0
vn 1 0 0
vn 1 0 0
vn 1 0 0
vn 0 -1 -8.742278E-08
vn 0 -1 -8.742278E-08
vn 0 -1 -8.742278E-08
vn 0 -1 -8.742278E-08
vn 0 -1 -8.742278E-08
vn 0 -1 -8.742278E-08
vn 0 -1 -8.742278E-08
vn 0 -1 -8.742278E-08
vn 0 1 8.742278E-08
vn 0 1 8.742278E-08
vn 0 1 8.742278E-08
vn 0 1 8.742278E-08
vn 0 -8.742278E-08 1
vn 0 -8.742278E-08 1
vn 0 -8.742278E-08 1
vn 0 -8.742278E-08 1
vn 1 0 0
vn 1 0 0
vn 1 0 0
vn 1 0 0
vn -1 0 0
vn -1 0 0
vn -1 0 0
vn -1 0 0
vn -0.9807969 1.705022E-08 -0.1950318
vn -0.8314188 -4.857614E-08 0.5556462
vn -0.8314188 -4.857614E-08 0.5556462
vn -0.9807969 1.705022E-08 -0.1950318
vn -0.5556462 -7.268495E-08 0.8314189
vn -0.5556462 -7.268495E-08 0.8314189
vn -0.1950318 -8.574399E-08 0.9807969
vn -0.1950318 -8.574399E-08 0.9807969
vn 0.1950318 -8.574399E-08 0.9807969
vn 0.1950318 -8.574399E-08 0.9807969
vn 0.5556462 -7.268495E-08 0.8314189
vn 0.5556462 -7.268495E-08 0.8314189
vn 0.8314188 -4.857614E-08 0.5556462
vn 0.8314188 -4.857614E-08 0.5556462
vn 0.9807969 -1.705022E-08 0.1950318
vn 0.9807969 -1.705022E-08 0.1950318
vn 0.9807969 1.705022E-08 -0.1950318
vn 0.9807969 1.705022E-08 -0.1950318
vn 0.8314188 4.857614E-08 -0.5556462
vn 0.8314188 4.857614E-08 -0.5556462
vn 0.5556462 7.268495E-08 -0.8314189
vn 0.5556462 7.268495E-08 -0.8314189
vn 0.1950318 8.574399E-08 -0.9807969
vn 0.1950318 8.574399E-08 -0.9807969
vn -0.1950318 8.574399E-08 -0.9807969
vn -0.1950318 8.574399E-08 -0.9807969
vn -0.5556462 7.268495E-08 -0.8314189
vn -0.5556462 7.268495E-08 -0.8314189
vn -0.8314188 4.857614E-08 -0.5556462
vn -0.8314188 4.857614E-08 -0.5556462
vn -0.9807969 1.705022E-08 -0.1950318
vn -0.9807969 1.705022E-08 -0.1950318
vn 0 1 8.742278E-08
vn 0 1 8.742278E-08
vn 0 1 8.742278E-08
vn 0 1 8.742278E-08
vn 0 1 8.742278E-08
vn 0 1 8.742278E-08
vn 0 1 8.742278E-08
vn 0 1 8.742278E-08
vn 0 1 8.742278E-08
vn 0 1 8.742278E-08
vn 0 1 8.742278E-08
vn 0 1 8.742278E-08
vn 0 1 8.742278E-08
vn 0 1 8.742278E-08
vn 0 1 8.742278E-08
vn 0 1 8.742278E-08
vn 0 1 8.742278E-08
vn -0.9807969 1.705022E-08 -0.1950318
vn -0.8314189 -4.857613E-08 0.5556461
vn -0.8314189 -4.857613E-08 0.5556461
vn -0.9807969 1.705022E-08 -0.1950318
vn -0.5556461 -7.268495E-08 0.8314189
vn -0.5556461 -7.268495E-08 0.8314189
vn -0.1950318 -8.574399E-08 0.9807969
vn -0.1950318 -8.574399E-08 0.9807969
vn 0.1950318 -8.574399E-08 0.9807969
vn 0.1950318 -8.574399E-08 0.9807969
vn 0.5556461 -7.268495E-08 0.8314189
vn 0.5556461 -7.268495E-08 0.8314189
vn 0.8314189 -4.857613E-08 0.5556461
vn 0.8314189 -4.857613E-08 0.5556461
vn 0.9807969 -1.705022E-08 0.1950318
vn 0.9807969 -1.705022E-08 0.1950318
vn 0.9807969 1.705022E-08 -0.1950318
vn 0.9807969 1.705022E-08 -0.1950318
vn 0.8314189 4.857613E-08 -0.5556461
vn 0.8314189 4.857613E-08 -0.5556461
vn 0.5556461 7.268495E-08 -0.8314189
vn 0.5556461 7.268495E-08 -0.8314189
vn 0.1950318 8.574399E-08 -0.9807969
vn 0.1950318 8.574399E-08 -0.9807969
vn -0.1950318 8.574399E-08 -0.9807969
vn -0.1950318 8.574399E-08 -0.9807969
vn -0.5556461 7.268495E-08 -0.8314189
vn -0.5556461 7.268495E-08 -0.8314189
vn -0.8314189 4.857613E-08 -0.5556461
vn -0.8314189 4.857613E-08 -0.5556461
vn -0.9807969 1.705022E-08 -0.1950318
vn -0.9807969 1.705022E-08 -0.1950318
vn 0 1 8.742278E-08
vn 0 1 8.742278E-08
vn 0 1 8.742278E-08
vn 0 1 8.742278E-08
vn 0 1 8.742278E-08
vn 0 1 8.742278E-08
vn 0 1 8.742278E-08
vn 0 1 8.742278E-08
vn 0 1 8.742278E-08
vn 0 1 8.742278E-08
vn 0 1 8.742278E-08
vn 0 1 8.742278E-08
vn 0 1 8.742278E-08
vn 0 1 8.742278E-08
vn 0 1 8.742278E-08
vn 0 1 8.742278E-08
vn 0 1 8.742278E-08
vn -0.9807969 1.705022E-08 -0.1950318
vn -0.8314188 -4.857614E-08 0.5556462
vn -0.8314188 -4.857614E-08 0.5556462
vn -0.9807969 1.705022E-08 -0.1950318
vn -0.5556462 -7.268495E-08 0.8314189
vn -0.5556462 -7.268495E-08 0.8314189
vn -0.1950318 -8.574399E-08 0.9807969
vn -0.1950318 -8.574399E-08 0.9807969
vn 0.1950318 -8.574399E-08 0.9807969
vn 0.1950318 -8.574399E-08 0.9807969
vn 0.5556462 -7.268495E-08 0.8314189
vn 0.5556462 -7.268495E-08 0.8314189
vn 0.8314188 -4.857614E-08 0.5556462
vn 0.8314188 -4.857614E-08 0.5556462
vn 0.9807969 -1.705022E-08 0.1950318
vn 0.9807969 -1.705022E-08 0.1950318
vn 0.9807969 1.705022E-08 -0.1950318
vn 0.9807969 1.705022E-08 -0.1950318
vn 0.8314188 4.857614E-08 -0.5556462
vn 0.8314188 4.857614E-08 -0.5556462
vn 0.5556462 7.268495E-08 -0.8314189
vn 0.5556462 7.268495E-08 -0.8314189
vn 0.1950318 8.574399E-08 -0.9807969
vn 0.1950318 8.574399E-08 -0.9807969
vn -0.1950318 8.574399E-08 -0.9807969
vn -0.1950318 8.574399E-08 -0.9807969
vn -0.5556462 7.268495E-08 -0.8314189
vn -0.5556462 7.268495E-08 -0.8314189
vn -0.8314188 4.857614E-08 -0.5556462
vn -0.8314188 4.857614E-08 -0.5556462
vn -0.9807969 1.705022E-08 -0.1950318
vn -0.9807969 1.705022E-08 -0.1950318
vn 0 1 8.742278E-08
vn 0 1 8.742278E-08
vn 0 1 8.742278E-08
vn 0 1 8.742278E-08
vn 0 1 8.742278E-08
vn 0 1 8.742278E-08
vn 0 1 8.742278E-08
vn 0 1 8.742278E-08
vn 0 1 8.742278E-08
vn 0 1 8.742278E-08
vn 0 1 8.742278E-08
vn 0 1 8.742278E-08
vn 0 1 8.742278E-08
vn 0 1 8.742278E-08
vn 0 1 8.742278E-08
vn 0 1 8.742278E-08
vn 0 1 8.742278E-08
vn 0 8.742278E-08 -1
vn 0 8.742278E-08 -1
vn 0 8.742278E-08 -1
vn 0 8.742278E-08 -1
vt -1.5308 13.6956
vt 0 14
vt 0 10
vt -2.8284 12.8284
vt -3.6956 11.5308
vt -4 10
vt -3.6956 8.4692
vt -2.8284 7.1716
vt -1.5308 6.3044
vt 0 6
vt 1.5308 6.3044
vt 2.8284 7.1716
vt 3.6956 8.4692
vt 4 10
vt 3.6956 11.5308
vt 2.8284 12.8284
vt 1.5308 13.6956
vt 24 0
vt 24 -1.5308
vt 4 -1.5308
vt 4 0
vt 12.8284 24
vt 12.8284 4
vt 11.5308 24
vt 11.5308 4
vt 10 24
vt 10 4
vt 8.4692 24
vt 8.4692 4
vt 24 -2.8284
vt 4 -2.8284
vt 24 -1.5308
vt 4 -1.5308
vt 24 0
vt 4 0
vt 24 1.5308
vt 4 1.5308
vt 7.1716 24
vt 7.1716 4
vt 8.4692 24
vt 8.4692 4
vt 10 24
vt 10 4
vt 11.5308 24
vt 11.5308 4
vt 24 2.8284
vt 4 2.8284
vt 24 1.5308
vt 4 1.5308
vt -1.5308 -6.3044
vt 0 -6
vt 0 -10
vt -2.8284 -7.1716
vt -3.6956 -8.4692
vt -4 -10
vt -3.6956 -11.5308
vt -2.8284 -12.8284
vt -1.5308 -13.6956
vt 0 -14
vt 1.5308 -13.6956
vt 2.8284 -12.8284
vt 3.6956 -11.5308
vt 4 -10
vt 3.6956 -8.4692
vt 2.8284 -7.1716
vt 1.5308 -6.3044
vt 24 0
vt 24 -1.5308
vt 4 -1.5308
vt 4 0
vt -7.1716 24
vt -7.1716 4
vt -8.4692 24
vt -8.4692 4
vt -10 24
vt -10 4
vt -11.5308 24
vt -11.5308 4
vt 24 -2.8284
vt 4 -2.8284
vt 24 -1.5308
vt 4 -1.5308
vt 24 0
vt 4 0
vt 24 1.5308
vt 4 1.5308
vt -12.8284 24
vt -12.8284 4
vt -11.5308 24
vt -11.5308 4
vt -10 24
vt -10 4
vt -8.4692 24
vt -8.4692 4
vt 24 2.8284
vt 4 2.8284
vt 24 1.5308
vt 4 1.5308
vt 6 -26
vt 6 26
vt -6 26
vt -6 -26
vt 26 4
vt 26 24
vt -26 24
vt -26 4
vt 4 -6
vt 24 -6
vt 24 6
vt 4 6
vt -26 4
vt -26 24
vt 26 24
vt 26 4
vt 4 6
vt 24 6
vt 24 -6
vt 4 -6
vt -10 -30
vt -6 -26
vt -6 26
vt -10 30
vt 10 -30
vt 6 -26
vt 10 30
vt 6 26
vt -10 -30
vt 10 -30
vt 10 30
vt -10 30
vt 30 24
vt -30 24
vt -30 0
vt 30 0
vt 24 -10
vt 24 10
vt 0 10
vt 0 -10
vt 24 10
vt 24 -10
vt 0 -10
vt 0 10
vt 0 0
vt 0 -2.2962
vt -4 -2.2962
vt -4 0
vt 24.2426 0
vt 24.2426 -4
vt 22.2962 0
vt 22.2962 -4
vt 20 0
vt 20 -4
vt 17.7038 0
vt 17.7038 -4
vt 0 -4.2426
vt -4 -4.2426
vt 0 -2.2962
vt -4 -2.2962
vt 0 0
vt -4 0
vt 0 2.2962
vt -4 2.2962
vt 15.7574 0
vt 15.7574 -4
vt 17.7038 0
vt 17.7038 -4
vt 20 0
vt 20 -4
vt 22.2962 0
vt 22.2962 -4
vt 0 4.2426
vt -4 4.2426
vt 0 2.2962
vt -4 2.2962
vt -2.2962 25.5434
vt 0 26
vt 0 20
vt -4.2426 24.2426
vt -5.5434 22.2962
vt -6 20
vt -5.5434 17.7038
vt -4.2426 15.7574
vt -2.2962 14.4566
vt 0 14
vt 2.2962 14.4566
vt 4.2426 15.7574
vt 5.5434 17.7038
vt 6 20
vt 5.5434 22.2962
vt 4.2426 24.2426
vt 2.2962 25.5434
vt 0 0
vt 0 -2.2962
vt -4 -2.2962
vt -4 0
vt 4.2426 0
vt 4.2426 -4
vt 2.2962 0
vt 2.2962 -4
vt 0 0
vt 0 -4
vt -2.2962 0
vt -2.2962 -4
vt 0 -4.2426
vt -4 -4.2426
vt 0 -2.2962
vt -4 -2.2962
vt 0 0
vt -4 0
vt 0 2.2962
vt -4 2.2962
vt -4.2426 0
vt -4.2426 -4
vt -2.2962 0
vt -2.2962 -4
vt 0 0
vt 0 -4
vt 2.2962 0
vt 2.2962 -4
vt 0 4.2426
vt -4 4.2426
vt 0 2.2962
vt -4 2.2962
vt -2.2962 5.5434
vt 0 6
vt 0 0
vt -4.2426 4.2426
vt -5.5434 2.2962
vt -6 0
vt -5.5434 -2.2962
vt -4.2426 -4.2426
vt -2.2962 -5.5434
vt 0 -6
vt 2.2962 -5.5434
vt 4.2426 -4.2426
vt 5.5434 -2.2962
vt 6 0
vt 5.5434 2.2962
vt 4.2426 4.2426
vt 2.2962 5.5434
vt 0 0
vt 0 -2.2962
vt -4 -2.2962
vt -4 0
vt -15.7574 0
vt -15.7574 -4
vt -17.7038 0
vt -17.7038 -4
vt -20 0
vt -20 -4
vt -22.2962 0
vt -22.2962 -4
vt 0 -4.2426
vt -4 -4.2426
vt 0 -2.2962
vt -4 -2.2962
vt 0 0
vt -4 0
vt 0 2.2962
vt -4 2.2962
vt -24.2426 0
vt -24.2426 -4
vt -22.2962 0
vt -22.2962 -4
vt -20 0
vt -20 -4
vt -17.7038 0
vt -17.7038 -4
vt 0 4.2426
vt -4 4.2426
vt 0 2.2962
vt -4 2.2962
vt -2.2962 -14.4566
vt 0 -14
vt 0 -20
vt -4.2426 -15.7574
vt -5.5434 -17.7038
vt -6 -20
vt -5.5434 -22.2962
vt -4.2426 -24.2426
vt -2.2962 -25.5434
vt 0 -26
vt 2.2962 -25.5434
vt 4.2426 -24.2426
vt 5.5434 -22.2962
vt 6 -20
vt 5.5434 -17.7038
vt 4.2426 -15.7574
vt 2.2962 -14.4566
vt 30 24
vt -30 24
vt -30 0
vt 30 0
usemtl 15
f 1/1/1 2/2/2 3/3/3
f 4/4/4 1/1/1 3/3/3
f 5/5/5 4/4/4 3/3/3
f 6/6/6 5/5/5 3/3/3
f 7/7/7 6/6/6 3/3/3
f 8/8/8 7/7/7 3/3/3
f 9/9/9 8/8/8 3/3/3
f 10/10/10 9/9/9 3/3/3
f 11/11/11 10/10/10 3/3/3
f 12/12/12 11/11/11 3/3/3
f 13/13/13 12/12/12 3/3/3
f 14/14/14 13/13/13 3/3/3
f 15/15/15 14/14/14 3/3/3
f 16/16/16 15/15/15 3/3/3
f 17/17/17 16/16/16 3/3/3
f 2/2/2 17/17/17 3/3/3
f 18/18/18 19/19/19 20/20/20
f 18/18/18 20/20/20 21/21/21
f 19/19/19 22/22/22 23/23/23
f 19/19/19 23/23/23 20/20/20
f 22/22/22 24/24/24 25/25/25
f 22/22/22 25/25/25 23/23/23
f 24/24/24 26/26/26 27/27/27
f 24/24/24 27/27/27 25/25/25
f 26/26/26 28/28/28 29/29/29
f 26/26/26 29/29/29 27/27/27
f 28/28/28 30/30/30 31/31/31
f 28/28/28 31/31/31 29/29/29
f 30/30/30 32/32/32 33/33/33
f 30/30/30 33/33/33 31/31/31
f 32/32/32 34/34/34 35/35/35
f 32/32/32 35/35/35 33/33/33
f 34/34/34 36/36/36 37/37/37
f 34/34/34 37/37/37 35/35/35
f 36/36/36 38/38/38 39/39/39
f 36/36/36 39/39/39 37/37/37
f 38/38/38 40/40/40 41/41/41
f 38/38/38 41/41/41 39/39/39
f 40/40/40 42/42/42 43/43/43
f 40/40/40 43/43/43 41/41/41
f 42/42/42 44/44/44 45/45/45
f 42/42/42 45/45/45 43/43/43
f 44/44/44 46/46/46 47/47/47
f 44/44/44 47/47/47 45/45/45
f 46/46/46 48/48/48 49/49/49
f 46/46/46 49/49/49 47/47/47
f 48/48/48 18/18/18 21/21/21
f 48/48/48 21/21/21 49/49/49
f 50/50/50 51/51/51 52/52/52
f 53/53/53 50/50/50 52/52/52
f 54/54/54 53/53/53 52/52/52
f 55/55/55 54/54/54 52/52/52
f 56/56/56 55/55/55 52/52/52
f 57/57/57 56/56/56 52/52/52
f 58/58/58 57/57/57 52/52/52
f 59/59/59 58/58/58 52/52/52
f 60/60/60 59/59/59 52/52/52
f 61/61/61 60/60/60 52/52/52
f 62/62/62 61/61/61 52/52/52
f 63/63/63 62/62/62 52/52/52
f 64/64/64 63/63/63 52/52/52
f 65/65/65 64/64/64 52/52/52
f 66/66/66 65/65/65 52/52/52
f 51/51/51 66/66/66 52/52/52
f 67/67/67 68/68/68 69/69/69
f 67/67/67 69/69/69 70/70/70
f 68/68/68 71/71/71 72/72/72
f 68/68/68 72/72/72 69/69/69
f 71/71/71 73/73/73 74/74/74
f 71/71/71 74/74/74 72/72/72
f 73/73/73 75/75/75 76/76/76
f 73/73/73 76/76/76 74/74/74
f 75/75/75 77/77/77 78/78/78
f 75/75/75 78/78/78 76/76/76
f 77/77/77 79/79/79 80/80/80
f 77/77/77 80/80/80 78/78/78
f 79/79/79 81/81/81 82/82/82
f 79/79/79 82/82/82 80/80/80
f 81/81/81 83/83/83 84/84/84
f 81/81/81 84/84/84 82/82/82
f 83/83/83 85/85/85 86/86/86
f 83/83/83 86/86/86 84/84/84
f 85/85/85 87/87/87 88/88/88
f 85/85/85 88/88/88 86/86/86
f 87/87/87 89/89/89 90/90/90
f 87/87/87 90/90/90 88/88/88
f 89/89/89 91/91/91 92/92/92
f 89/89/89 92/92/92 90/90/90
f 91/91/91 93/93/93 94/94/94
f 91/91/91 94/94/94 92/92/92
f 93/93/93 95/95/95 96/96/96
f 93/93/93 96/96/96 94/94/94
f 95/95/95 97/97/97 98/98/98
f 95/95/95 98/98/98 96/96/96
f 97/97/97 67/67/67 70/70/70
f 97/97/97 70/70/70 98/98/98
f 101/101/101 100/100/100 99/99/99
f 102/102/102 101/101/101 99/99/99
f 105/105/105 104/104/104 103/103/103
f 106/106/106 105/105/105 103/103/103
f 109/109/109 108/108/108 107/107/107
f 110/110/110 109/109/109 107/107/107
f 113/113/113 112/112/112 111/111/111
f 114/114/114 113/113/113 111/111/111
f 117/117/117 116/116/116 115/115/115
f 118/118/118 117/117/117 115/115/115
f 121/121/121 120/120/120 119/119/119
f 122/122/122 121/121/121 119/119/119
f 120/120/120 124/124/124 123/123/123
f 119/119/119 120/120/120 123/123/123
f 124/124/124 126/126/126 125/125/125
f 123/123/123 124/124/124 125/125/125
f 126/126/126 121/121/121 122/122/122
f 125/125/125 126/126/126 122/122/122
f 127/127/127 128/128/128 129/129/129
f 127/127/127 129/129/129 130/130/130
f 131/131/131 132/132/132 133/133/133
f 131/131/131 133/133/133 134/134/134
f 135/135/135 136/136/136 137/137/137
f 135/135/135 137/137/137 138/138/138
f 139/139/139 140/140/140 141/141/141
f 139/139/139 141/141/141 142/142/142
f 143/143/143 144/144/144 145/145/145
f 143/143/143 145/145/145 146/146/146
f 144/144/144 147/147/147 148/148/148
f 144/144/144 148/148/148 145/145/145
f 147/147/147 149/149/149 150/150/150
f 147/147/147 150/150/150 148/148/148
f 149/149/149 151/151/151 152/152/152
f 149/149/149 152/152/152 150/150/150
f 151/151/151 153/153/153 154/154/154
f 151/151/151 154/154/154 152/152/152
f 153/153/153 155/155/155 156/156/156
f 153/153/153 156/156/156 154/154/154
f 155/155/155 157/157/157 158/158/158
f 155/155/155 158/158/158 156/156/156
f 157/157/157 159/159/159 160/160/160
f 157/157/157 160/160/160 158/158/158
f 159/159/159 161/161/161 162/162/162
f 159/159/159 162/162/162 160/160/160
f 161/161/161 163/163/163 164/164/164
f 161/161/161 164/164/164 162/162/162
f 163/163/163 165/165/165 166/166/166
f 163/163/163 166/166/166 164/164/164
f 165/165/165 167/167/167 168/168/168
f 165/165/165 168/168/168 166/166/166
f 167/167/167 169/169/169 170/170/170
f 167/167/167 170/170/170 168/168/168
f 169/169/169 171/171/171 172/172/172
f 169/169/169 172/172/172 170/170/170
f 171/171/171 173/173/173 174/174/174
f 171/171/171 174/174/174 172/172/172
f 173/173/173 143/143/143 146/146/146
f 173/173/173 146/146/146 174/174/174
f 177/177/177 176/176/176 175/175/175
f 177/177/177 175/175/175 178/178/178
f 177/177/177 178/178/178 179/179/179
f 177/177/177 179/179/179 180/180/180
f 177/177/177 180/180/180 181/181/181
f 177/177/177 181/181/181 182/182/182
f 177/177/177 182/182/182 183/183/183
f 177/177/177 183/183/183 184/184/184
f 177/177/177 184/184/184 185/185/185
f 177/177/177 185/185/185 186/186/186
f 177/177/177 186/186/186 187/187/187
f 177/177/177 187/187/187 188/188/188
f 177/177/177 188/188/188 189/189/189
f 177/177/177 189/189/189 190/190/190
f 177/177/177 190/190/190 191/191/191
f 177/177/177 191/191/191 176/176/176
f 192/192/192 193/193/193 194/194/194
f 192/192/192 194/194/194 195/195/195
f 193/193/193 196/196/196 197/197/197
f 193/193/193 197/197/197 194/194/194
f 196/196/196 198/198/198 199/199/199
f 196/196/196 199/199/199 197/197/197
f 198/198/198 200/200/200 201/201/201
f 198/198/198 201/201/201 199/199/199
f 200/200/200 202/202/202 203/203/203
f 200/200/200 203/203/203 201/201/201
f 202/202/202 204/204/204 205/205/205
f 202/202/202 205/205/205 203/203/203
f 204/204/204 206/206/206 207/207/207
f 204/204/204 207/207/207 205/205/205
f 206/206/206 208/208/208 209/209/209
f 206/206/206 209/209/209 207/207/207
f 208/208/208 210/210/210 211/211/211
f 208/208/208 211/211/211 209/209/209
f 210/210/210 212/212/212 213/213/213
f 210/210/210 213/213/213 211/211/211
f 212/212/212 214/214/214 215/215/215
f 212/212/212 215/215/215 213/213/213
f 214/214/214 216/216/216 217/217/217
f 214/214/214 217/217/217 215/215/215
f 216/216/216 218/218/218 219/219/219
f 216/216/216 219/219/219 217/217/217
f 218/218/218 220/220/220 221/221/221
f 218/218/218 221/221/221 219/219/219
f 220/220/220 222/222/222 223/223/223
f 220/220/220 223/223/223 221/221/221
f 222/222/222 192/192/192 195/195/195
f 222/222/222 195/195/195 223/223/223
f 226/226/226 225/225/225 224/224/224
f 226/226/226 224/224/224 227/227/227
f 226/226/226 227/227/227 228/228/228
f 226/226/226 228/228/228 229/229/229
f 226/226/226 229/229/229 230/230/230
f 226/226/226 230/230/230 231/231/231
f 226/226/226 231/231/231 232/232/232
f 226/226/226 232/232/232 233/233/233
f 226/226/226 233/233/233 234/234/234
f 226/226/226 234/234/234 235/235/235
f 226/226/226 235/235/235 236/236/236
f 226/226/226 236/236/236 237/237/237
f 226/226/226 237/237/237 238/238/238
f 226/226/226 238/238/238 239/239/239
f 226/226/226 239/239/239 240/240/240
f 226/226/226 240/240/240 225/225/225
f 241/241/241 242/242/242 243/243/243
f 241/241/241 243/243/243 244/244/244
f 242/242/242 245/245/245 246/246/246
f 242/242/242 246/246/246 243/243/243
f 245/245/245 247/247/247 248/248/248
f 245/245/245 248/248/248 246/246/246
f 247/247/247 249/249/249 250/250/250
f 247/247/247 250/250/250 248/248/248
f 249/249/249 251/251/251 252/252/252
f 249/249/249 252/252/252 250/250/250
f 251/251/251 253/253/253 254/254/254
f 251/251/251 254/254/254 252/252/252
f 253/253/253 255/255/255 256/256/256
f 253/253/253 256/256/256 254/254/254
f 255/255/255 257/257/257 258/258/258
f 255/255/255 258/258/258 256/256/256
f 257/257/257 259/259/259 260/260/260
f 257/257/257 260/260/260 258/258/258
f 259/259/259 261/261/261 262/262/262
f 259/259/259 262/262/262 260/260/260
f 261/261/261 263/263/263 264/264/264
f 261/261/261 264/264/264 262/262/262
f 263/263/263 265/265/265 266/266/266
f 263/263/263 266/266/266 264/264/264
f 265/265/265 267/267/267 268/268/268
f 265/265/265 268/268/268 266/266/266
f 267/267/267 269/269/269 270/270/270
f 267/267/267 270/270/270 268/268/268
f 269/269/269 271/271/271 272/272/272
f 269/269/269 272/272/272 270/270/270
f 271/271/271 241/241/241 244/244/244
f 271/271/271 244/244/244 272/272/272
f 275/275/275 274/274/274 273/273/273
f 275/275/275 273/273/273 276/276/276
f 275/275/275 276/276/276 277/277/277
f 275/275/275 277/277/277 278/278/278
f 275/275/275 278/278/278 279/279/279
f 275/275/275 279/279/279 280/280/280
f 275/275/275 280/280/280 281/281/281
f 275/275/275 281/281/281 282/282/282
f 275/275/275 282/282/282 283/283/283
f 275/275/275 283/283/283 284/284/284
f 275/275/275 284/284/284 285/285/285
f 275/275/275 285/285/285 286/286/286
f 275/275/275 286/286/286 287/287/287
f 275/275/275 287/287/287 288/288/288
f 275/275/275 288/288/288 289/289/289
f 275/275/275 289/289/289 274/274/274
f 292/292/292 291/291/291 290/290/290
f 293/293/293 292/292/292 290/290/290
